<?xml version="1.0" standalone="no"?>
<!DOCTYPE svg PUBLIC "-//W3C//DTD SVG 20010904//EN"
 "http://www.w3.org/TR/2001/REC-SVG-20010904/DTD/svg10.dtd">
<svg version="1.0" xmlns="http://www.w3.org/2000/svg"
 width="512.000000pt" height="512.000000pt" viewBox="0 0 512.000000 512.000000"
 preserveAspectRatio="xMidYMid meet">

<g transform="translate(0.000000,512.000000) scale(0.100000,-0.100000)"
fill="#000000" stroke="none">
<path d="M2317 4314 c-132 -438 -236 -798 -233 -801 2 -3 38 27 79 65 41 39
73 73 71 75 -3 3 300 1027 322 1087 3 8 82 -237 174 -544 l169 -559 68 -69
c37 -38 69 -64 71 -59 3 10 -467 1583 -477 1593 -3 4 -113 -351 -244 -788z"/>
<path d="M1455 4328 c-132 -73 -334 -472 -501 -992 l-57 -179 -443 6 c-244 3
-444 2 -444 -1 1 -4 191 -149 424 -323 l422 -316 13 -59 c20 -90 64 -197 105
-252 l36 -50 -34 -34 c-49 -49 -70 -128 -63 -234 4 -69 11 -95 45 -165 41 -87
76 -190 107 -317 20 -85 49 -132 88 -145 24 -8 36 -4 80 25 66 44 136 84 164
92 l21 7 -23 -73 c-13 -40 -111 -349 -219 -687 -108 -338 -194 -616 -192 -618
2 -2 356 271 787 607 431 335 787 609 791 607 7 -2 145 -109 1051 -815 285
-222 520 -402 523 -400 2 2 -55 187 -126 411 -72 223 -130 413 -130 421 0 9 8
16 18 16 33 0 110 58 156 117 207 263 272 711 190 1318 -8 61 -17 130 -19 155
l-5 45 445 330 c244 182 444 333 445 336 0 3 -218 3 -483 1 l-484 -5 -7 64
c-8 86 -46 162 -90 183 -39 18 -98 21 -127 6 -23 -13 -56 -76 -67 -127 l-8
-37 -18 49 c-23 60 -59 111 -85 120 -33 10 -77 -21 -102 -71 l-22 -47 -30 37
c-56 70 -142 94 -202 57 -27 -16 -33 -17 -61 -3 -43 20 -81 1 -109 -55 -16
-33 -24 -40 -33 -31 -9 9 -12 -2 -12 -51 0 -48 -5 -69 -20 -88 -13 -16 -20
-41 -20 -67 0 -33 -6 -47 -30 -69 l-30 -29 0 36 c0 20 -4 36 -8 36 -21 0 -42
-39 -42 -79 0 -28 -7 -52 -20 -68 -13 -17 -20 -41 -20 -68 0 -26 -6 -48 -15
-55 -13 -11 -15 -7 -15 24 0 40 -9 45 -33 18 -11 -12 -17 -36 -17 -64 0 -28
-6 -50 -15 -58 -13 -11 -15 -2 -15 74 0 47 -4 86 -8 86 -20 0 -32 -28 -32 -75
0 -47 -12 -75 -32 -75 -4 0 -8 39 -8 87 0 85 0 86 -20 68 -18 -16 -20 -31 -20
-160 0 -115 -3 -145 -15 -155 -13 -11 -15 -7 -15 29 0 22 -3 41 -7 41 -5 0
-22 -17 -40 -37 l-32 -38 -1 43 c0 23 -4 42 -8 42 -19 0 -32 -28 -32 -70 0
-34 -5 -52 -20 -65 -20 -18 -20 -17 -20 27 0 32 -6 50 -20 63 -20 18 -20 17
-20 -25 l0 -44 -35 34 c-29 30 -34 42 -35 81 0 33 -6 51 -20 64 -20 18 -20 17
-20 -23 0 -43 -7 -51 -28 -30 -9 9 -12 4 -12 -25 0 -20 -4 -37 -8 -37 -19 0
-32 28 -32 70 0 34 -5 52 -20 65 -20 18 -20 17 -20 -19 0 -26 -4 -36 -12 -34
-9 3 -16 39 -21 104 -8 102 -15 125 -35 132 -8 2 -12 -11 -12 -38 0 -37 -2
-41 -15 -30 -11 9 -15 35 -15 106 0 79 -3 97 -19 113 -11 11 -22 17 -25 14 -3
-4 -6 -62 -6 -131 0 -109 -2 -123 -15 -112 -10 8 -15 30 -15 61 0 44 -3 51
-40 80 -37 30 -40 36 -40 84 0 39 -5 56 -20 70 -20 18 -20 17 -20 -30 0 -41
-2 -46 -15 -35 -12 10 -15 36 -15 118 0 101 -1 107 -27 134 -55 58 -121 22
-158 -86 -10 -30 -20 -54 -21 -53 -2 1 -7 47 -13 100 -6 61 -18 115 -30 141
-19 39 -20 50 -11 142 13 131 12 412 0 494 -18 112 -48 188 -94 236 -36 38
-48 44 -82 44 -21 0 -48 -6 -59 -12z m97 -248 c47 -64 46 -364 -2 -692 -50
-339 -171 -598 -279 -598 -32 0 -77 50 -92 101 -17 61 -14 247 5 349 23 122
62 253 104 345 l37 80 7 -55 c23 -178 22 -188 -17 -310 -30 -95 -37 -131 -37
-205 -2 -144 31 -207 84 -165 75 59 138 349 169 775 11 166 3 291 -21 321 -50
59 -143 -58 -256 -321 -66 -153 -145 -384 -172 -500 -70 -302 -41 -624 68
-748 44 -50 95 -65 144 -42 130 62 251 367 288 728 15 145 32 156 42 26 4 -50
25 -200 47 -333 92 -556 93 -739 4 -935 -59 -128 -147 -210 -327 -301 -57 -29
-118 -64 -136 -77 -18 -14 -35 -23 -36 -22 -2 2 -19 61 -39 132 -20 70 -52
161 -72 203 -19 42 -35 80 -35 84 0 5 45 36 100 70 268 164 407 309 471 490
20 56 23 85 24 210 0 135 -16 263 -35 275 -4 3 -10 -17 -14 -44 -34 -256 -181
-532 -312 -587 -82 -34 -177 -2 -232 80 -55 83 -67 140 -66 316 1 180 18 276
87 490 135 413 308 780 408 864 37 32 65 31 91 -4z m2463 -900 c9 -14 28 -169
60 -470 14 -135 38 -326 52 -425 31 -219 42 -543 23 -691 -32 -257 -144 -476
-278 -543 -70 -36 -135 -44 -244 -30 -53 7 -102 15 -108 19 -8 5 0 28 24 71
47 86 66 162 73 295 l6 112 90 -44 c98 -48 151 -55 210 -30 62 25 124 126 162
261 21 76 30 301 19 471 l-8 129 -12 -165 c-17 -235 -41 -349 -86 -412 -39
-56 -91 -25 -122 70 -31 95 -46 228 -71 617 -24 380 -46 541 -87 636 -17 41
-18 52 -7 90 l12 44 18 -58 c10 -32 39 -181 64 -332 60 -362 86 -447 142 -461
58 -15 102 86 110 254 7 130 -8 244 -58 441 -21 85 -39 156 -39 158 0 8 49 2
55 -7z m-510 -24 c17 -13 45 -51 63 -83 151 -285 173 -1017 34 -1175 -35 -40
-97 -8 -136 70 -47 97 -64 185 -106 562 -34 303 -54 428 -81 508 -16 48 -17
55 -2 89 11 28 17 33 23 23 14 -25 38 -158 55 -295 32 -271 63 -385 116 -430
41 -33 71 -32 103 5 77 92 85 325 19 534 -18 56 -35 90 -58 113 -58 58 -63 47
-39 -98 3 -20 1 -62 -6 -93 -10 -49 -14 -55 -27 -45 -59 50 -92 246 -53 319
15 27 56 26 95 -4z m-1620 -156 c22 -146 24 -152 46 -145 24 8 24 -8 2 -41
-21 -32 -20 -171 2 -276 16 -77 21 -335 6 -308 -4 8 -14 87 -20 175 -22 290
-49 437 -93 517 l-21 37 28 76 c15 42 29 74 31 72 2 -1 10 -50 19 -107z
m-1013 75 c3 -3 1 -29 -4 -58 -6 -28 -15 -105 -22 -169 l-11 -118 -233 175
-234 175 249 0 c137 0 252 -2 255 -5z m3877 1 c-22 -21 -543 -406 -545 -403
-2 2 -10 66 -19 143 -8 77 -17 165 -21 196 l-7 57 69 4 c103 5 528 8 523 3z
m-1543 -236 c26 -153 6 -526 -28 -492 -6 6 -7 74 -3 178 9 264 9 336 0 384 -5
32 -4 42 3 35 6 -6 19 -53 28 -105z m-50 -39 c-15 -14 -16 -11 -16 31 0 28 5
48 13 51 19 6 22 -63 3 -82z m-1066 12 c0 -39 -2 -44 -15 -33 -9 8 -15 30 -15
57 0 39 2 44 15 33 9 -8 15 -30 15 -57z m-110 -125 c0 -79 -2 -89 -15 -78 -11
9 -15 35 -15 102 0 79 2 89 15 78 11 -9 15 -35 15 -102z m150 -100 c0 -35 -2
-39 -15 -28 -9 7 -15 29 -15 52 0 35 2 39 15 28 9 -7 15 -29 15 -52z m856 -47
l-36 -36 0 45 c0 39 4 49 32 72 l33 27 3 -36 c3 -30 -2 -42 -32 -72z m-886
-13 c0 -21 -4 -38 -8 -38 -5 0 -23 18 -40 39 -23 29 -32 50 -32 77 l0 38 40
-39 c33 -32 40 -46 40 -77z m190 -97 l0 -45 -35 34 c-30 29 -35 41 -35 79 l0
45 35 -34 c30 -29 35 -41 35 -79z m584 -2 c-36 -38 -44 -37 -44 8 0 28 8 45
33 71 l32 33 3 -42 c3 -34 -2 -47 -24 -70z m-164 62 c0 -22 -6 -44 -15 -51
-13 -11 -15 -6 -15 32 0 25 3 48 7 51 15 16 23 5 23 -32z m390 -79 c0 -30 -7
-45 -35 -72 l-35 -34 0 44 c0 34 6 50 27 72 35 37 43 35 43 -10z m-700 -91 l0
-45 -35 34 c-30 29 -35 41 -35 79 l0 45 35 -34 c30 -29 35 -41 35 -79z m338
-22 c-18 -12 -24 57 -6 78 11 14 13 10 16 -27 2 -28 -1 -46 -10 -51z m378 2
c-15 -14 -16 -12 -16 25 0 22 6 46 13 53 10 10 13 5 15 -25 2 -24 -2 -42 -12
-53z m-568 17 c7 -7 12 -32 12 -56 0 -34 3 -43 14 -39 11 5 16 -9 22 -60 7
-68 -2 -113 -23 -121 -10 -3 -13 19 -13 86 0 76 -3 91 -20 107 -13 12 -20 31
-20 57 0 39 7 47 28 26z m-440 -31 c17 -16 22 -31 22 -66 l0 -45 -35 34 c-28
27 -35 42 -35 73 0 41 6 42 48 4z m570 -140 l-33 -28 -3 37 c-3 30 2 43 30 71
l33 34 3 -43 c3 -38 0 -46 -30 -71z m268 -16 l-36 -36 0 45 c0 36 6 50 33 78
l32 33 3 -42 c3 -37 -1 -47 -32 -78z m190 0 l-36 -36 0 45 c0 36 6 50 33 78
l32 33 3 -42 c3 -37 -1 -47 -32 -78z m-928 14 c3 -43 1 -47 -12 -36 -20 17
-22 95 -3 89 7 -3 13 -26 15 -53z m1088 -66 c37 -195 113 -364 183 -405 46
-27 64 -90 59 -217 -2 -81 -7 -110 -24 -142 -67 -125 -74 -143 -80 -210 -11
-126 36 -247 111 -284 23 -11 38 -11 84 -1 31 7 73 21 94 31 28 15 38 17 42 7
30 -89 151 -478 148 -478 -2 0 -40 28 -84 62 -45 35 -93 72 -107 83 -15 11
-112 87 -217 168 -104 82 -221 173 -260 203 -144 111 -237 183 -419 324 l-186
144 0 46 c0 43 13 70 32 70 4 0 8 -17 8 -37 l0 -37 58 57 c52 51 58 61 54 91
-4 34 11 76 28 76 5 0 10 -16 12 -35 l3 -35 173 166 172 166 0 48 c0 37 8 61
35 105 19 32 39 73 46 92 6 19 13 33 15 30 2 -2 11 -41 20 -88z m-1126 9 c0
-35 -2 -39 -15 -28 -9 7 -15 29 -15 52 0 35 2 39 15 28 9 -7 15 -29 15 -52z
m200 -100 c0 -21 -3 -38 -7 -38 -4 0 -22 14 -40 32 -28 27 -33 39 -33 77 l0
45 40 -39 c33 -32 40 -46 40 -77z m443 14 c-16 -12 -18 -10 -21 23 -2 25 3 44
15 57 18 20 18 20 21 -23 3 -33 -1 -47 -15 -57z m276 -8 c-19 -23 -29 -16 -29
23 0 21 8 45 18 56 17 19 17 18 20 -23 2 -23 -2 -48 -9 -56z m-631 43 c17 -16
22 -31 22 -66 l0 -45 -35 34 c-28 27 -35 42 -35 73 0 41 6 42 48 4z m-260 -29
c7 -7 12 -32 12 -57 l-1 -46 -19 24 c-11 13 -20 38 -20 57 0 36 8 42 28 22z
m573 -52 c18 17 19 16 19 -25 0 -39 1 -41 20 -31 18 10 20 8 20 -28 0 -26 -7
-45 -20 -57 -20 -18 -20 -17 -20 25 0 34 -3 41 -12 32 -20 -20 -28 -14 -28 25
l0 37 -35 -34 -35 -34 0 44 c0 36 6 50 33 78 l32 33 3 -41 c3 -41 4 -41 23
-24z m-872 -131 c47 -106 141 -162 210 -125 14 7 23 5 36 -10 26 -29 35 -25
35 16 0 31 2 35 15 24 9 -7 15 -29 15 -54 0 -39 5 -46 136 -177 l135 -136
-147 -114 c-81 -63 -170 -132 -199 -154 -61 -47 -709 -550 -833 -647 -47 -37
-88 -66 -90 -64 -2 2 74 246 168 542 l172 539 68 71 c102 108 172 240 208 397
l17 69 16 -64 c8 -34 26 -85 38 -113z m1077 59 c-3 -8 -10 -14 -16 -14 -14 0
-13 73 3 89 10 10 13 5 15 -24 2 -21 1 -43 -2 -51z m-882 33 c8 -32 7 -67 -2
-67 -18 0 -32 26 -32 62 0 28 4 36 14 32 8 -3 17 -15 20 -27z m426 -80 c0 -39
0 -40 -20 -22 -14 12 -20 31 -20 58 0 39 0 40 20 22 14 -12 20 -31 20 -58z
m-460 -10 c0 -39 0 -40 -20 -22 -14 12 -20 31 -20 58 0 39 0 40 20 22 14 -12
20 -31 20 -58z m1690 -39 c0 -11 -8 -18 -19 -18 -17 0 -18 3 -8 30 11 30 27
23 27 -12z m-1390 -70 c0 -35 -2 -39 -15 -28 -9 7 -15 29 -15 52 0 35 2 39 15
28 9 -7 15 -29 15 -52z m200 -107 l0 -45 -40 39 -40 39 0 -43 c0 -38 -2 -42
-15 -31 -9 8 -15 30 -15 58 0 36 3 43 12 34 20 -20 28 -14 28 25 l0 37 35 -34
c30 -29 35 -41 35 -79z m146 -87 c-3 -8 -10 -14 -16 -14 -14 0 -13 73 3 89 10
10 13 5 15 -24 2 -21 1 -43 -2 -51z"/>
<path d="M2427 3842 c-16 -18 -16 -20 3 -37 19 -18 22 -18 37 -2 16 16 16 18
-3 37 -20 20 -21 20 -37 2z"/>
<path d="M2309 3724 c-10 -12 -9 -18 3 -30 13 -13 16 -13 31 4 15 16 15 19 -3
29 -14 10 -21 9 -31 -3z"/>
<path d="M2700 3726 c-10 -13 -10 -19 0 -32 12 -14 15 -14 29 0 14 15 14 17 0
32 -14 14 -17 14 -29 0z"/>
<path d="M2770 3724 c-11 -12 -10 -18 3 -32 16 -15 18 -15 34 0 13 14 14 20 3
32 -7 9 -16 16 -20 16 -4 0 -13 -7 -20 -16z"/>
<path d="M2426 3692 c-15 -18 -15 -20 2 -36 17 -14 21 -15 31 -2 10 12 10 19
-2 36 -13 19 -14 19 -31 2z"/>
<path d="M2657 3612 c-17 -18 -16 -20 15 -44 18 -14 45 -37 59 -52 24 -23 28
-24 39 -10 12 13 6 23 -41 70 -54 53 -56 54 -72 36z"/>
<path d="M2804 3615 c-4 -8 -1 -22 6 -30 9 -11 16 -12 30 -2 18 10 18 13 3 29
-20 22 -32 23 -39 3z"/>
<path d="M2465 3500 c-17 -18 -15 -50 3 -50 5 0 19 11 31 24 22 24 23 24 3 35
-15 8 -23 6 -37 -9z"/>
<path d="M2580 3465 c-15 -18 -7 -45 13 -45 8 0 20 6 26 13 8 11 6 18 -8 31
-16 15 -20 15 -31 1z"/>
<path d="M2736 3461 c-17 -18 -16 -20 18 -46 30 -23 39 -25 51 -15 11 9 13 15
5 20 -7 4 -17 18 -23 30 -16 31 -30 34 -51 11z"/>
<path d="M3070 3429 c-16 -29 13 -63 41 -48 25 13 23 30 -6 52 -23 17 -25 17
-35 -4z"/>
<path d="M2122 3387 c-21 -22 -21 -24 -4 -40 16 -17 15 -19 -22 -50 -36 -31
-38 -34 -22 -50 24 -23 32 -22 57 13 32 43 45 43 88 5 74 -67 84 -35 14 46
-27 30 -53 63 -59 74 -15 28 -27 28 -52 2z"/>
<path d="M2967 3393 c-23 -26 -23 -26 19 -58 31 -24 38 -26 50 -13 13 12 10
19 -18 52 -32 37 -33 38 -51 19z"/>
<path d="M2472 3347 c-15 -17 0 -39 21 -31 21 8 22 18 3 33 -10 8 -16 8 -24
-2z"/>
<path d="M2803 3315 c-3 -9 3 -25 13 -36 16 -17 19 -18 33 -5 13 14 13 18 -4
36 -22 24 -34 25 -42 5z"/>
<path d="M2890 3305 c-22 -27 12 -49 38 -23 8 8 9 15 1 25 -15 17 -24 16 -39
-2z"/>
<path d="M3113 3309 c-16 -16 -17 -89 -3 -89 15 0 22 23 18 65 -2 29 -5 34
-15 24z"/>
<path d="M3007 3272 c-16 -17 -16 -20 -2 -32 13 -11 19 -11 31 1 12 12 12 18
1 33 -12 16 -14 16 -30 -2z"/>
<path d="M2352 3248 c-19 -19 -15 -32 23 -68 33 -32 36 -33 52 -17 17 16 15
19 -23 57 -31 32 -42 38 -52 28z"/>
<path d="M2505 3236 c-19 -14 -19 -16 -2 -33 16 -16 18 -16 34 0 15 15 16 19
2 32 -13 13 -17 13 -34 1z"/>
<path d="M2794 3139 l-31 -31 25 -38 c24 -38 25 -38 49 -23 21 14 22 17 8 33
-19 21 -19 34 0 50 12 10 13 16 4 26 -16 19 -20 18 -55 -17z"/>
<path d="M2520 3105 c-34 -35 -34 -37 -16 -51 17 -12 22 -12 37 2 20 18 42 10
77 -31 22 -26 23 -28 6 -46 -17 -19 -17 -21 3 -40 l20 -21 32 40 31 40 -52 47
c-29 26 -57 56 -63 68 -16 33 -37 31 -75 -8z"/>
<path d="M2304 3119 c-3 -6 1 -18 9 -27 13 -13 19 -13 32 -2 12 10 13 16 4 26
-14 17 -35 18 -45 3z"/>
<path d="M2351 3007 c-17 -21 23 -55 44 -37 14 12 14 15 -1 31 -20 23 -28 23
-43 6z"/>
<path d="M2480 2797 c0 -21 8 -41 20 -52 20 -18 20 -17 20 21 0 37 -13 64 -32
64 -4 0 -8 -15 -8 -33z"/>
</g>
</svg>
